<svg width="428" height="67" viewBox="0 0 428 67" fill="none" xmlns="http://www.w3.org/2000/svg">
<path d="M188.965 0.308794C193.011 -1.24968 197.438 3.39819 195.632 7.36914C194.353 11.0961 188.823 11.9619 186.498 8.77019C184.168 6.01138 185.573 1.42648 188.965 0.308794Z" fill="#BE1869"/>
<path d="M281.044 1.46489C283.681 0.32752 287.093 1.74431 288.022 4.49131C289.159 7.18715 287.577 10.6268 284.775 11.4887C282.292 12.3663 279.293 11.1187 278.23 8.69446C276.833 6.06159 278.293 2.5078 281.044 1.46489Z" fill="#BE1869"/>
<path d="M188.304 15.4729C188.764 14.0679 190.11 12.5252 191.72 13.3871C195.03 14.9298 199.048 16.0947 200.854 19.5777C202.771 23.0095 201.759 27.008 201.881 30.7192C202.578 29.5149 202.842 28.1375 203.2 26.8112C204.432 29.1135 205.321 31.9116 204.266 34.454C202.92 37.5119 199.803 39.2239 196.915 40.5777C198.198 38.5509 201.004 37.8543 201.622 35.3906C196.816 35.3316 192.983 40.6367 187.906 38.7162C191.204 37.4293 194.707 35.9023 196.714 32.8207C198.438 30.2981 198.658 27.1064 198.253 24.1586C199.335 25.2685 200.315 26.8151 199.784 28.4287C198.816 31.2859 196.667 33.5764 195.734 36.4572C200.669 33.5764 202.546 27.0591 200.559 21.8327C199.004 18.0389 195.392 15.41 191.519 14.3434C190.299 13.9341 189.272 14.922 188.304 15.4729Z" fill="#BE1869"/>
<path d="M132.021 17.6991C133.143 16.7349 134.705 16.9199 136.075 16.8333C141.109 16.8136 146.142 16.8333 151.18 16.8254C150.33 18.4823 149.275 20.0762 148.854 21.9141C147.779 30.3361 146.988 38.8054 145.611 47.188C149.507 48.8449 153.997 48.715 157.87 47.0897C160.137 45.8027 159.787 42.8511 160.145 40.6472C160.892 32.7643 162.238 24.9484 162.884 17.0616C166.013 17.0616 169.145 17.0616 172.274 17.0616C170.924 18.6397 169.913 20.5366 169.704 22.6303C168.889 29.8166 168.083 37.0068 167.091 44.1734C166.442 47.6721 164.824 51.4424 161.404 53.0126C157.677 54.6813 153.446 54.1697 149.475 54.1854C146.992 54.3035 144.757 53.1661 142.549 52.2019C136.74 56.6609 127.842 54.9135 122.903 49.9232C120.825 48.042 120.463 44.7087 117.692 43.5477C117.578 45.0668 116.645 47.495 114.717 46.2868C111.927 44.3899 115.193 40.3363 117.936 41.572C121.506 41.7531 121.695 46.2711 124.784 47.2549C127.889 48.4317 131.285 48.1483 134.544 48.109C136.532 48.227 138.365 46.6016 138.472 44.6063C139.428 36.877 140.361 29.1397 141.172 21.3946C141.565 19.6354 140.219 17.9352 138.409 17.9785C137.039 17.9903 134.65 17.1875 134.261 19.0962C134.288 21.8157 137 23.3938 139.491 23.2561C137.252 24.6178 134.127 24.8696 132.057 23.0672C130.455 21.7606 130.341 18.986 132.021 17.6991Z" fill="#BE1869"/>
<path d="M178.315 16.8384C183.75 18.267 189.496 16.2559 194.915 17.9561C194.207 18.389 191.243 18.1214 192.282 19.487C195.01 20.9431 198.331 22.9188 198.103 26.504C197.938 32.0413 192.908 35.54 188.245 37.3897C186.356 39.6133 183.963 37.2835 181.889 36.6459C182.566 39.7196 186.395 39.2906 188.685 40.4161C191.011 41.585 193.518 41.0143 195.919 40.4358C192.2 43.8361 185.954 42.9152 182.743 39.2866C181.098 37.3937 181.275 34.7372 180.484 32.4821C184.041 30.3687 183.707 25.0833 187.395 23.1352C190.256 22.171 193.369 22.9109 196.147 23.8358C194.234 21.5492 191.586 19.9789 188.768 19.0816C185.616 18.1056 182.286 18.6723 179.055 18.2945C178.296 20.0144 176.418 20.6558 175.265 21.99C174.616 25.7878 175.663 29.5777 176.635 33.222C174.34 29.8296 174.065 25.4296 174.34 21.4744C175.899 20.1875 177.76 18.999 178.315 16.8384ZM184.903 32.8009C185.903 34.4027 185.966 36.6931 187.855 37.5983C187.603 35.2763 186.391 33.1433 186.316 30.8095C186.745 29.2353 188.087 28.0783 188.725 26.5749C187.328 27.606 186.623 29.2078 185.82 30.6836C185.395 28.9638 184.872 26.2679 187.072 25.5398C189.996 24.7685 195.36 25.6894 194.073 29.8886C194.325 28.8024 194.49 27.7004 194.715 26.6103C195.175 27.2911 195.612 27.9838 196.065 28.6646C196.379 26.7717 195.088 25.4336 193.53 24.6425C193.353 24.7645 193.007 25.0046 192.829 25.1266C191.216 24.9023 189.602 24.6622 187.981 24.4969C188.925 24.0522 189.886 23.6272 190.767 23.0565C185.749 22.4819 182.77 28.7591 184.903 32.8009ZM190.586 26.9133C190.244 28.3341 191.243 29.4911 192.715 28.8378C192.68 28.2042 192.641 27.5745 192.605 26.9448C192.275 27.0865 191.948 27.2321 191.617 27.3777C191.362 27.2636 190.846 27.0314 190.586 26.9133ZM189.154 27.8697C189.008 29.621 188.512 31.5455 189.181 33.2141C190.685 34.5443 192.767 32.8481 194.447 32.5884C192.133 31.7422 190.157 30.1641 189.154 27.8697Z" fill="#BE1869"/>
<path d="M279.38 16.8188C282.627 16.8582 285.873 16.7834 289.116 16.8621C287.999 18.1176 287.011 19.554 286.668 21.2306C285.212 30.1327 284.893 39.2474 282.918 48.0591C285.378 48.1339 287.849 48.2362 290.305 47.9961C292.001 47.7718 293.162 46.1936 293.339 44.5643C294.492 35.3276 295.468 26.0634 296.629 16.8267C300.84 16.8306 305.051 16.8267 309.262 16.8228C310.888 16.7834 312.655 17.1691 313.812 18.397C315.166 19.9869 314.449 22.6749 312.631 23.5958C310.62 24.6938 308.05 24.5285 306.051 23.4699C308.452 23.1629 310.746 21.5887 311.01 19.0267C310.573 17.1967 308.219 18.0034 306.869 17.9405C304.819 17.8932 303.89 20.0539 303.682 21.7776C302.761 29.6762 302.005 37.6103 300.738 45.4656C300.246 48.9643 298.172 52.4354 294.748 53.7223C290.041 55.509 284.551 54.718 280.305 52.093C273.362 57.3902 261.89 54.293 258.203 46.4534C257.601 45.1783 256.554 44.2101 255.29 43.608C254.96 44.7454 254.972 46.6147 253.354 46.599C251.04 46.5321 250.662 43.2066 252.449 42.1007C254.822 40.5816 258.356 41.9236 259.427 44.4738C260.796 47.3546 264.22 48.0551 267.113 48.1142C269.895 48.0906 273.008 48.6573 275.409 46.8784C274.63 45.6191 273.661 44.4856 272.579 43.4781C272.17 44.5171 272.292 46.1189 271.013 46.5321C269.698 46.8863 268.325 45.5403 268.549 44.218C268.529 42.5297 270.289 41.3333 271.867 41.4553C273.535 41.5733 274.909 42.6281 276.286 43.4703C277.251 34.5799 278.419 25.7092 279.38 16.8188Z" fill="#BE1869"/>
<path d="M223.377 17.0597C226.368 16.9889 229.363 16.9928 232.354 16.9968C230.142 19.0433 229.481 22.0461 229.355 24.9387C228.352 32.4713 227.958 40.1062 226.309 47.5365C228.167 47.8474 230.414 46.9186 230.725 44.8761C231.972 36.1038 232.779 27.2724 233.916 18.4844C233.995 17.9334 234.196 17.107 234.889 17.107C237.864 16.8866 240.851 17.0479 243.834 16.9928C242.579 18.1892 241.437 19.6021 241.103 21.3495C239.784 30.0588 239.336 38.9177 237.549 47.5483C239.615 47.808 241.886 46.6038 242.102 44.3763C243.256 35.2773 244.141 26.1429 245.361 17.0519C250.524 16.9299 255.692 17.0558 260.855 17.1148C263.217 17.166 265.263 19.6808 264.185 21.9634C262.784 25.1315 258.415 25.1236 255.79 23.5573C258.136 23.5101 260.965 22.1405 260.855 19.4329C260.871 17.5202 258.545 18.0633 257.321 18.1774C255.873 18.3978 253.46 17.9216 253.102 19.8776C251.024 28.217 250.949 36.9027 249.415 45.3365C248.651 48.7447 246.569 52.0584 243.161 53.2981C239.745 54.8645 236.006 53.8609 232.504 53.2863C229.454 54.0537 226.226 54.585 223.145 53.5815C220.992 52.696 218.922 54.1285 216.765 54.1285C211.456 54.3764 205.958 51.9403 202.905 47.5247C202.176 48.2291 201.366 49.0753 200.256 48.9848C196.682 48.729 193.172 47.6664 189.571 47.812C187.615 48.1071 185.722 48.8982 183.707 48.7053C179.807 48.7053 176.741 46.0095 173.534 44.1677C172.585 43.4632 170.901 42.9162 171.027 41.4876C172.908 38.4926 171.696 33.951 174.986 31.94C173.345 34.99 173.065 38.5005 171.955 41.7237C174.651 43.6994 177.627 45.2893 180.484 47.0288C182.963 48.5833 186.285 48.3984 188.634 46.6785C186.36 47.1823 183.51 47.8041 181.786 45.7419C180.22 43.601 178.233 41.8575 176.041 40.3738C176.485 38.7485 176.914 37.1231 177.398 35.5095C178.906 38.5359 181.546 40.6021 183.738 43.0461C186.8 43.719 190.138 44.2661 193.133 43.0146C194.986 42.1488 197.092 42.7981 198.997 42.1527C201.862 41.3184 204.262 39.4057 206.391 37.3789C208.454 35.3363 209.626 31.936 208.107 29.2559C207.017 27.0875 204.613 26.2177 202.483 25.4227C204.294 25.4424 206.352 25.4857 207.651 26.9537C208.831 28.2799 210.768 29.2835 210.937 31.2277C210.768 33.2623 209.304 34.8483 208.28 36.5209C207.088 38.0991 207.304 40.2597 206.155 41.8693C205.565 43.1326 204.172 44.1598 204.262 45.6435C207.013 47.8513 210.839 47.6506 214.176 47.6034C213.467 45.7931 212.389 44.0772 210.638 43.1248C210.288 44.1992 210.331 45.978 208.855 46.1433C207.017 46.2771 206.14 43.841 207.159 42.4754C208.426 40.5627 211.283 41.0311 212.956 42.1212C214.912 43.2507 215.113 46.3244 217.545 46.7415C219.072 46.8675 219.532 45.1437 219.658 43.9552C220.638 35.6512 221.594 27.3472 222.594 19.0472C222.618 18.3034 223.003 17.6698 223.377 17.0597ZM200.72 46.5684C198.969 46.1158 197.627 44.7423 195.852 44.3526C193.081 43.5537 190.205 44.1677 187.418 44.5219C191.362 46.9029 196.198 48.3984 200.783 47.4775C202.743 45.7261 204.006 43.2586 205.246 40.9602C202.96 42.0818 201.602 44.27 200.72 46.5684Z" fill="#BE1869"/>
<path d="M180.972 25.0005C182.271 23.3003 183.211 21.0649 185.344 20.2464C187.686 19.4435 190.063 20.6478 192.074 21.7615C189.5 22.1393 186.214 20.8288 184.27 23.1154C182.109 25.2209 180.228 27.7947 179.677 30.8211C179.11 30.888 178.544 30.9589 177.981 31.0258C178.756 28.755 179.532 26.4802 180.232 24.1858C180.476 24.4574 180.724 24.7289 180.972 25.0005Z" fill="#BE1869"/>
<path d="M190.433 48.1543C191.483 48.7289 192.53 49.3113 193.546 49.941C193.506 49.6577 193.42 49.0831 193.38 48.7997C195.033 48.9808 196.682 49.1893 198.343 49.3232C196.863 53.2784 191.157 54.0655 191.039 58.8432C188.115 56.7967 184.962 55.073 182.192 52.8179C180.928 51.8537 180.795 50.1693 180.779 48.7053C182.566 49.394 183.337 51.3381 184.903 52.3614C184.183 52.2512 183.463 52.1489 182.743 52.0583C183.738 53.2862 185.191 53.9199 186.733 54.1324C186.651 54.2977 186.481 54.6361 186.399 54.8053C187.595 55.6239 188.776 56.4701 189.953 57.3201C189.846 56.5291 189.748 55.7341 189.728 54.9352C189.012 53.8372 189.02 52.5267 189.114 51.2673C189.925 51.6727 190.736 52.0859 191.562 52.4598C190.901 51.7474 190.2 51.0784 189.5 50.4094C189.807 49.6577 190.122 48.902 190.433 48.1543Z" fill="#BE1869"/>
<ellipse cx="148.205" cy="61.8586" rx="5.00896" ry="5.00896" fill="#BE1869"/>
<circle cx="156.579" cy="56.7043" r="4.59155" fill="#BE1869"/>
</svg>
