<svg width="140" height="140" viewBox="0 0 140 140" fill="none" xmlns="http://www.w3.org/2000/svg">
<path d="M67.4939 117.399L69.0354 129.744L67.5661 129.552L66.4744 119.519L66.3578 119.504L62.4119 128.879L60.7794 128.666L59.641 118.627L59.5244 118.611L55.6252 127.992L54.1559 127.8L59.1446 116.309L60.6372 116.504L61.8991 126.345L61.9924 126.357L66.0013 117.204L67.4939 117.399Z" fill="#DD338B"/>
<path d="M50.312 119.028L52.5859 114.094L53.8702 114.62L48.8301 125.556L47.5459 125.031L49.3965 121.015L49.2877 120.97C48.8965 121.314 48.4477 121.53 47.941 121.619C47.4291 121.71 46.8448 121.621 46.1882 121.352C45.6186 121.119 45.1715 120.802 44.8468 120.403C44.5204 120.007 44.3452 119.531 44.321 118.975C44.2916 118.421 44.4393 117.792 44.7641 117.087L47.166 111.875L48.4503 112.401L46.0877 117.527C45.7875 118.179 45.7277 118.753 45.9082 119.25C46.0835 119.749 46.4741 120.123 47.08 120.371C47.5008 120.543 47.9183 120.611 48.3324 120.573C48.7429 120.533 49.1214 120.386 49.4679 120.13C49.8108 119.873 50.0922 119.505 50.312 119.028Z" fill="#DD338B"/>
<path d="M41.1139 106.098L35.2839 112.996L34.1914 112.141L40.0214 105.242L41.1139 106.098ZM33.7567 113.711C33.9697 113.878 34.0939 114.092 34.1292 114.353C34.1615 114.612 34.0942 114.841 33.9272 115.038C33.7602 115.236 33.5416 115.346 33.2714 115.368C32.9982 115.388 32.7551 115.315 32.5422 115.148C32.3292 114.981 32.2066 114.768 32.1743 114.509C32.1389 114.247 32.2047 114.018 32.3717 113.82C32.5387 113.623 32.7588 113.514 33.0321 113.494C33.3022 113.472 33.5438 113.544 33.7567 113.711Z" fill="#DD338B"/>
<path d="M22.3625 99.9634L23.3109 99.268L25.9413 103.139L24.993 103.835L22.3625 99.9634ZM22.4814 103.986L21.7015 102.838L28.6433 97.7476C28.9594 97.5158 29.1646 97.2949 29.2587 97.085C29.3475 96.8741 29.3682 96.6744 29.3205 96.4858C29.2676 96.2963 29.1838 96.1173 29.0693 95.9487C28.9833 95.8222 28.9065 95.7231 28.8388 95.6513C28.7679 95.5818 28.7112 95.5263 28.6687 95.4846L29.5153 94.514C29.5966 94.5709 29.6989 94.6587 29.8221 94.7772C29.9484 94.8935 30.0843 95.0586 30.2297 95.2726C30.45 95.5968 30.5979 95.9644 30.6735 96.3754C30.7468 96.7831 30.7138 97.1911 30.5744 97.5994C30.4328 98.0044 30.1503 98.3622 29.7267 98.6729L22.4814 103.986Z" fill="#DD338B"/>
<path d="M24.5693 84.7046C24.8456 85.5298 24.9042 86.3095 24.7452 87.0435C24.5812 87.7753 24.2288 88.4253 23.6878 88.9936C23.142 89.5596 22.4363 90.0059 21.5707 90.3324C20.7052 90.659 19.8888 90.787 19.1216 90.7163C18.3494 90.6434 17.6817 90.3887 17.1183 89.9523C16.5501 89.5135 16.1365 88.9076 15.8777 88.1344C15.7283 87.6883 15.6542 87.2201 15.6553 86.7299C15.6564 86.2396 15.7622 85.7538 15.9729 85.2724C16.1798 84.7924 16.5174 84.3448 16.9856 83.9295C17.4538 83.5142 18.0822 83.1578 18.8708 82.8603L19.4209 82.6527L21.6312 89.2545L20.5089 89.678L18.7466 84.4144C18.2698 84.5942 17.8767 84.8514 17.5674 85.1858C17.2567 85.5165 17.0523 85.8993 16.9542 86.3341C16.8547 86.7651 16.8847 87.2186 17.044 87.6944C17.2195 88.2185 17.4997 88.6236 17.8846 88.9096C18.2646 89.1933 18.6924 89.3605 19.168 89.4114C19.6435 89.4622 20.1142 89.3998 20.58 89.2241L21.3282 88.9418C21.9664 88.701 22.4701 88.3854 22.8392 87.995C23.2034 87.6022 23.4338 87.1615 23.5305 86.6728C23.6235 86.1856 23.581 85.6762 23.403 85.1446C23.2873 84.7989 23.1351 84.5046 22.9464 84.2618C22.7527 84.0167 22.5245 83.8285 22.2617 83.6974C21.9952 83.5677 21.6965 83.5024 21.3658 83.5016L21.2923 82.0975C21.7625 82.0708 22.2119 82.1545 22.6405 82.3487C23.0653 82.5443 23.4454 82.8405 23.7807 83.2374C24.1123 83.6356 24.3752 84.1247 24.5693 84.7046Z" fill="#DD338B"/>
<path d="M23.1577 64.1774L11.416 61.5031L12.174 57.5053C12.3493 56.581 12.6498 55.858 13.0757 55.3362C13.4978 54.8136 14.0072 54.4716 14.604 54.3102C15.2007 54.1488 15.845 54.1469 16.5368 54.3045C17.2287 54.462 17.8151 54.7443 18.2962 55.1511C18.7772 55.558 19.1148 56.0909 19.3088 56.7498C19.4991 57.4079 19.5073 58.1952 19.3335 59.1119L18.7201 62.3471L17.4359 62.0546L18.0405 58.8656C18.1602 58.2339 18.1649 57.7047 18.0544 57.2777C17.9447 56.847 17.7381 56.5066 17.4346 56.2567C17.1281 56.002 16.7397 55.8212 16.2696 55.7141C15.7995 55.607 15.3718 55.602 14.9865 55.6991C14.6013 55.7962 14.2763 56.0175 14.0114 56.3629C13.7427 56.7075 13.5478 57.1995 13.4266 57.8388L12.949 60.3577L23.4294 62.7446L23.1577 64.1774ZM18.939 57.4069L24.7657 55.6965L24.4502 57.3603L18.6324 59.0245L18.939 57.4069Z" fill="#DD338B"/>
<path d="M27.7591 47.5378C27.3944 48.2671 26.9034 48.8151 26.2863 49.182C25.6708 49.5454 24.9786 49.7163 24.2096 49.6948C23.4423 49.6697 22.6476 49.4365 21.8256 48.9952C20.9968 48.5501 20.3495 48.0091 19.8838 47.3722C19.4199 46.7317 19.1537 46.0462 19.0853 45.3157C19.0186 44.5816 19.1676 43.85 19.5323 43.1207C19.897 42.3914 20.387 41.8451 21.0025 41.4818C21.6196 41.1149 22.3136 40.9449 23.0844 40.9718C23.8569 40.9952 24.6576 41.2294 25.4864 41.6744C26.3084 42.1158 26.9497 42.6557 27.4101 43.2944C27.8724 43.9295 28.1368 44.614 28.2035 45.3481C28.2719 46.0786 28.1237 46.8085 27.7591 47.5378ZM26.6608 46.9481C26.9378 46.3941 27.0258 45.8632 26.9249 45.3554C26.824 44.8476 26.5885 44.3854 26.2186 43.9688C25.8486 43.5522 25.3977 43.2012 24.8658 42.9156C24.3339 42.63 23.7954 42.4498 23.2501 42.375C22.7049 42.3002 22.2012 42.3655 21.7392 42.5711C21.2771 42.7767 20.9076 43.1564 20.6306 43.7104C20.3536 44.2644 20.2673 44.7962 20.3716 45.3059C20.476 45.8156 20.7149 46.2796 21.0883 46.698C21.4618 47.1165 21.9144 47.4685 22.4463 47.754C22.9782 48.0396 23.515 48.2189 24.0568 48.2918C24.5986 48.3648 25.0988 48.2976 25.5574 48.0902C26.016 47.8828 26.3838 47.5021 26.6608 46.9481Z" fill="#DD338B"/>
<path d="M32.9726 30.3909L32.3793 31.5423C32.1739 31.4579 31.9474 31.4046 31.6997 31.3826C31.4518 31.355 31.1923 31.3916 30.9211 31.4923C30.6498 31.5931 30.3764 31.791 30.1007 32.086C29.7233 32.4898 29.5019 32.9132 29.4366 33.3563C29.3711 33.7938 29.4802 34.145 29.7639 34.4098C30.0161 34.6452 30.3009 34.7394 30.6184 34.6925C30.9358 34.6456 31.3253 34.4729 31.7867 34.1743L32.9429 33.4195C33.6375 32.9633 34.2676 32.7283 34.8331 32.7145C35.3958 32.698 35.9078 32.9051 36.3692 33.3357C36.7475 33.6888 36.9839 34.1132 37.0786 34.6091C37.1759 35.102 37.1298 35.6221 36.9404 36.1692C36.751 36.7163 36.4168 37.2462 35.9377 37.7589C35.3087 38.4319 34.6419 38.8526 33.9374 39.0208C33.2329 39.189 32.5449 39.0698 31.8735 38.6629L32.5321 37.476C32.9731 37.716 33.4016 37.7915 33.8175 37.7024C34.236 37.6105 34.6394 37.3568 35.0275 36.9416C35.4691 36.469 35.7195 36.0002 35.7785 35.5352C35.8373 35.0646 35.7249 34.6969 35.4412 34.4321C35.2119 34.2181 34.9449 34.1191 34.6403 34.1351C34.3328 34.1484 33.9851 34.285 33.5972 34.545L32.3115 35.4041C31.6035 35.8746 30.9665 36.1113 30.4006 36.114C29.8345 36.1111 29.3236 35.8971 28.868 35.4718C28.4954 35.1241 28.2635 34.712 28.1724 34.2354C28.0838 33.756 28.1279 33.2582 28.3045 32.742C28.4837 32.223 28.7901 31.7315 29.2238 31.2675C29.834 30.6145 30.4564 30.2356 31.091 30.1307C31.7282 30.023 32.3554 30.1097 32.9726 30.3909Z" fill="#DD338B"/>
<path d="M46.0538 28.7818C45.3029 29.2216 44.5526 29.4386 43.8028 29.4327C43.0544 29.4215 42.3478 29.2088 41.6831 28.7944C41.0196 28.3748 40.4409 27.7739 39.947 26.9916C39.4531 26.2094 39.1632 25.4348 39.0774 24.6678C38.9928 23.8955 39.107 23.1885 39.4199 22.5466C39.7341 21.8995 40.243 21.3699 40.9466 20.9579C41.3525 20.7202 41.7953 20.5517 42.2747 20.4525C42.7542 20.3533 43.2505 20.3578 43.7636 20.4659C44.2746 20.5707 44.7804 20.8103 45.2808 21.1846C45.7813 21.5589 46.2565 22.1024 46.7065 22.815L47.0205 23.3122L41.0129 26.8305L40.3725 25.8163L45.1623 23.0111C44.8902 22.5802 44.5595 22.2473 44.1701 22.0122C43.7841 21.7751 43.3687 21.6529 42.9238 21.6456C42.4824 21.6362 42.0452 21.7583 41.6122 22.0119C41.1352 22.2912 40.7958 22.6489 40.5939 23.085C40.3933 23.5158 40.3161 23.9696 40.3624 24.4465C40.4087 24.9233 40.5647 25.3722 40.8305 25.7932L41.2575 26.4694C41.6216 27.0461 42.0318 27.4755 42.488 27.7577C42.9455 28.0347 43.4229 28.1705 43.9201 28.1654C44.4151 28.157 44.9046 28.0111 45.3883 27.7278C45.7029 27.5436 45.9598 27.3341 46.1591 27.0993C46.3596 26.8593 46.4975 26.5969 46.5726 26.3123C46.6456 26.0244 46.6492 25.7181 46.5832 25.3935L47.941 25.0342C48.062 25.49 48.0708 25.9479 47.9675 26.408C47.8621 26.8647 47.6492 27.2981 47.3289 27.7082C47.0066 28.1149 46.5815 28.4728 46.0538 28.7818Z" fill="#DD338B"/>
<path d="M66.0732 22V9.95763H70.2833C71.1222 9.95763 71.8141 10.1027 72.359 10.3928C72.9038 10.6789 73.3096 11.065 73.5761 11.5511C73.8427 12.0333 73.976 12.5684 73.976 13.1564C73.976 13.6738 73.8839 14.1011 73.6996 14.4382C73.5193 14.7754 73.2802 15.0419 72.9822 15.2379C72.6882 15.4339 72.3688 15.579 72.0238 15.6731V15.7907C72.3923 15.8142 72.7627 15.9435 73.1351 16.1787C73.5075 16.4139 73.8192 16.7511 74.0701 17.1901C74.3209 17.6292 74.4464 18.1662 74.4464 18.8012C74.4464 19.4049 74.3092 19.9479 74.0348 20.43C73.7604 20.9122 73.3272 21.2944 72.7353 21.5766C72.1434 21.8589 71.3731 22 70.4244 22L66.0732 22ZM67.5314 20.7064L70.4244 20.7064C71.377 20.7064 72.0532 20.5221 72.453 20.1537C72.8568 19.7813 73.0587 19.3305 73.0587 18.8012C73.0587 18.3936 72.9548 18.0172 72.747 17.6723C72.5393 17.3234 72.2433 17.0451 71.8592 16.8373C71.475 16.6256 71.0203 16.5198 70.495 16.5198L67.5314 16.5198V20.7064ZM67.5314 15.2497H70.2363C70.6753 15.2497 71.0712 15.1634 71.424 14.991C71.7808 14.8185 72.063 14.5754 72.2708 14.2618C72.4824 13.9482 72.5883 13.5798 72.5883 13.1564C72.5883 12.6272 72.404 12.1783 72.0356 11.8099C71.6671 11.4374 71.083 11.2512 70.2833 11.2512H67.5314V15.2497Z" fill="#DD338B"/>
<path d="M83.571 24.3148C82.7281 24.0982 82.0572 23.7276 81.5581 23.2031C81.064 22.6759 80.7532 22.038 80.6256 21.2895C80.5029 20.5383 80.5767 19.7203 80.847 18.8355C81.1173 17.9508 81.5188 17.2129 82.0515 16.622C82.5891 16.0283 83.2099 15.6178 83.9141 15.3904C84.6232 15.1602 85.3726 15.1465 86.1623 15.3495C86.6179 15.4666 87.0449 15.6572 87.4433 15.9213C87.8417 16.1854 88.1716 16.533 88.433 16.9641C88.6956 17.3914 88.8509 17.9084 88.8989 18.5151C88.947 19.1219 88.8479 19.8282 88.6017 20.6343L88.4299 21.1966L81.687 19.4638L82.0374 18.3166L87.4135 19.6982C87.5624 19.2108 87.5965 18.7506 87.5159 18.3174C87.4391 17.8853 87.2542 17.5122 86.961 17.1984C86.6717 16.8855 86.2841 16.6666 85.7981 16.5417C85.2628 16.4041 84.7595 16.4163 84.2883 16.5782C83.822 16.7374 83.4209 16.9982 83.0849 17.3607C82.749 17.7232 82.5083 18.1425 82.3628 18.6186L82.1292 19.3834C81.9299 20.0357 81.8749 20.618 81.9641 21.1301C82.0583 21.6395 82.2743 22.065 82.6122 22.4066C82.9512 22.7444 83.3922 22.9831 83.9352 23.1226C84.2882 23.2133 84.6221 23.2465 84.9366 23.2222C85.2561 23.1952 85.5505 23.1091 85.8201 22.9641C86.0907 22.8153 86.3288 22.6056 86.5343 22.3349L87.7229 23.0285C87.4533 23.4283 87.1068 23.7516 86.6833 23.9986C86.261 24.2419 85.7844 24.3943 85.2537 24.4561C84.7242 24.5141 84.1632 24.467 83.571 24.3148Z" fill="#DD338B"/>
<path d="M93.9286 29.7788C93.4336 29.4914 93.0424 29.1397 92.7548 28.7237C92.4693 28.3043 92.3184 27.8522 92.3023 27.3673C92.2882 26.879 92.4391 26.387 92.755 25.891C93.033 25.4546 93.3465 25.152 93.6955 24.9832C94.0466 24.8112 94.4191 24.733 94.8131 24.7489C95.207 24.7647 95.6062 24.8379 96.0106 24.9685C96.4205 25.0978 96.8216 25.2446 97.2138 25.4089C97.7263 25.6249 98.1395 25.8037 98.4534 25.9451C98.7728 26.0853 99.0246 26.1567 99.2086 26.1593C99.396 26.164 99.5498 26.0721 99.6698 25.8836L99.6951 25.844C100.007 25.3546 100.112 24.8947 100.01 24.4642C99.9113 24.0356 99.5857 23.661 99.0331 23.3402C98.4602 23.0075 97.9331 22.8691 97.4518 22.9248C96.9704 22.9805 96.5752 23.1089 96.2661 23.3099L95.3797 22.2518C95.878 21.907 96.3788 21.7041 96.8821 21.643C97.3909 21.5806 97.8796 21.6153 98.3483 21.747C98.8225 21.8774 99.2563 22.0567 99.6495 22.285C99.9004 22.4306 100.17 22.6277 100.457 22.8761C100.75 23.1232 100.992 23.4246 101.184 23.7803C101.379 24.1379 101.463 24.556 101.437 25.0344C101.411 25.5129 101.205 26.0547 100.819 26.6597L97.6224 31.6785L96.4222 30.9818L97.0793 29.9503L97.0183 29.9149C96.8317 30.0329 96.5834 30.1311 96.2735 30.2093C95.9636 30.2876 95.6089 30.3013 95.2093 30.2505C94.8098 30.1997 94.3829 30.0425 93.9286 29.7788ZM94.7814 28.8337C95.256 29.1092 95.714 29.2505 96.1553 29.2576C96.6 29.2667 96.997 29.1756 97.3463 28.9844C97.6991 28.7952 97.9765 28.5418 98.1787 28.2244L98.8611 27.1532C98.7723 27.1832 98.6257 27.1728 98.4212 27.122C98.2222 27.0699 97.9993 26.9971 97.7523 26.9036C97.5109 26.8087 97.2767 26.7135 97.0497 26.6179C96.8281 26.521 96.6477 26.4434 96.5083 26.3852C96.1711 26.2438 95.8385 26.139 95.5104 26.0708C95.1878 26.0013 94.8877 26.0059 94.6099 26.0847C94.3377 26.1622 94.1068 26.3497 93.9173 26.6472C93.6582 27.0539 93.6166 27.4509 93.7924 27.8383C93.9737 28.2244 94.3034 28.5562 94.7814 28.8337Z" fill="#DD338B"/>
<path d="M109.73 36.8021L113.636 33.1616L114.584 34.1749L107.977 40.3332L107.029 39.3199L108.147 38.2775L108.083 38.2088C107.603 38.367 107.093 38.3925 106.552 38.2854C106.015 38.1756 105.513 37.8716 105.047 37.3736C104.661 36.9614 104.409 36.5108 104.289 36.0219C104.173 35.5302 104.212 35.0218 104.408 34.4964C104.606 33.9684 104.987 33.4425 105.549 32.9186L109.747 29.0055L110.695 30.0188L106.566 33.8677C106.084 34.3168 105.826 34.8095 105.791 35.3458C105.758 35.885 105.939 36.365 106.333 36.7858C106.568 37.0377 106.873 37.2337 107.246 37.3739C107.621 37.5169 108.025 37.5529 108.458 37.4818C108.893 37.4136 109.317 37.187 109.73 36.8021Z" fill="#DD338B"/>
<path d="M121.354 46.3655L120.328 46.9405L118.306 42.7192L119.332 42.1441L121.354 46.3655ZM121.809 42.3163L122.408 43.5678L114.899 47.7774C114.557 47.9691 114.325 48.1642 114.203 48.3625C114.087 48.5625 114.038 48.7601 114.058 48.9554C114.083 49.1522 114.139 49.3426 114.227 49.5264C114.293 49.6643 114.354 49.7736 114.41 49.8543C114.47 49.9331 114.517 49.9961 114.553 50.0434L113.588 50.9076C113.516 50.84 113.429 50.7388 113.325 50.604C113.218 50.4712 113.109 50.2881 112.997 50.0547C112.828 49.7012 112.735 49.3135 112.72 48.8916C112.706 48.4733 112.796 48.0685 112.99 47.677C113.186 47.2892 113.513 46.9668 113.971 46.7099L121.809 42.3163Z" fill="#DD338B"/>
<path d="M112.623 59.248C112.581 59.0167 112.562 58.806 112.566 58.6159C112.567 58.4266 112.579 58.2933 112.6 58.2158L113.855 58.2836C113.832 58.6348 113.855 58.935 113.925 59.1841C113.995 59.4331 114.149 59.6323 114.388 59.7814C114.623 59.9354 114.979 60.0429 115.456 60.104L116.19 60.1973L124.424 54.8402L124.697 56.3206L118.141 60.4155L118.158 60.508L125.617 61.317L125.89 62.7974L115.12 61.3894C114.634 61.3262 114.22 61.2043 113.876 61.0235C113.528 60.8436 113.251 60.6049 113.045 60.3073C112.84 60.0136 112.699 59.6605 112.623 59.248Z" fill="#DD338B"/>
<path d="M122.95 91.446C123.53 91.5894 124.054 91.4813 124.521 91.1217C124.988 90.7621 125.338 90.2366 125.569 89.5452C125.739 89.0397 125.806 88.5669 125.772 88.1269C125.736 87.6905 125.612 87.3132 125.401 86.9947C125.188 86.68 124.902 86.4549 124.543 86.3193C124.242 86.2058 123.959 86.1807 123.694 86.2441C123.432 86.3125 123.19 86.435 122.97 86.6115C122.753 86.7894 122.557 86.9874 122.381 87.2056C122.208 87.4251 122.059 87.6305 121.933 87.8216L121.236 88.8652C121.06 89.1335 120.843 89.4242 120.585 89.7373C120.326 90.0541 120.023 90.3355 119.677 90.5815C119.332 90.8326 118.942 90.9993 118.505 91.0816C118.069 91.164 117.586 91.1055 117.058 90.9062C116.449 90.6765 115.953 90.3073 115.57 89.7985C115.186 89.2934 114.952 88.6776 114.869 87.9513C114.784 87.2286 114.889 86.4286 115.183 85.5514C115.457 84.7336 115.824 84.0746 116.285 83.5743C116.744 83.0778 117.264 82.7464 117.844 82.5802C118.423 82.4176 119.029 82.4303 119.66 82.6182L119.182 84.0456C118.744 83.9222 118.343 83.9344 117.98 84.082C117.619 84.2347 117.305 84.4806 117.039 84.8197C116.775 85.1639 116.567 85.5628 116.415 86.0163C116.238 86.5442 116.164 87.0499 116.192 87.5336C116.224 88.0187 116.351 88.4413 116.573 88.8015C116.799 89.1631 117.118 89.4214 117.528 89.5763C117.902 89.7175 118.242 89.7264 118.548 89.6031C118.854 89.4797 119.138 89.2729 119.4 88.9825C119.663 88.6922 119.916 88.367 120.16 88.0071L121.027 86.7514C121.579 85.9547 122.177 85.3848 122.82 85.0415C123.464 84.6982 124.165 84.6697 124.925 84.9561C125.555 85.1941 126.048 85.5746 126.401 86.0974C126.758 86.6253 126.968 87.232 127.031 87.9176C127.098 88.6083 127.009 89.3179 126.765 90.0465C126.518 90.7825 126.169 91.3876 125.717 91.8618C125.269 92.3374 124.765 92.6581 124.205 92.8238C123.645 92.9933 123.077 92.98 122.502 92.7842L122.95 91.446Z" fill="#DD338B"/>
<path d="M114.75 104.289L113.801 103.594L116.432 99.7224L117.38 100.418L114.75 104.289ZM118.358 102.826L117.578 103.974L110.637 98.8829C110.32 98.6511 110.051 98.5242 109.829 98.5024C109.608 98.4861 109.42 98.5328 109.265 98.6425C109.111 98.7578 108.977 98.8998 108.862 99.0684C108.776 99.1948 108.712 99.3032 108.67 99.3936C108.631 99.4862 108.599 99.5603 108.576 99.6159L107.412 99.1122C107.436 99.0135 107.482 98.884 107.548 98.7237C107.611 98.5611 107.715 98.3728 107.861 98.1588C108.081 97.8346 108.365 97.5667 108.712 97.3551C109.057 97.1467 109.438 97.0424 109.855 97.0421C110.27 97.0451 110.689 97.2019 111.113 97.5125L118.358 102.826Z" fill="#DD338B"/>
<path d="M99.6781 106.985C100.315 106.476 100.998 106.179 101.727 106.094C102.453 106.012 103.173 106.131 103.888 106.453C104.6 106.777 105.254 107.299 105.85 108.017C106.45 108.741 106.841 109.479 107.023 110.232C107.201 110.988 107.175 111.705 106.945 112.386C106.711 113.068 106.276 113.664 105.639 114.172C105.002 114.681 104.32 114.977 103.594 115.059C102.866 115.145 102.144 115.024 101.429 114.696C100.712 114.371 100.053 113.847 99.4523 113.122C98.8567 112.404 98.471 111.669 98.2952 110.917C98.1163 110.167 98.1435 109.451 98.3768 108.768C98.6071 108.088 99.0408 107.494 99.6781 106.985ZM100.474 107.945C99.9898 108.331 99.6928 108.771 99.583 109.265C99.4732 109.759 99.5084 110.265 99.6886 110.783C99.8688 111.301 100.152 111.792 100.537 112.257C100.922 112.722 101.356 113.095 101.839 113.376C102.322 113.658 102.823 113.797 103.34 113.795C103.858 113.793 104.359 113.599 104.843 113.213C105.327 112.827 105.623 112.385 105.73 111.888C105.838 111.391 105.8 110.882 105.617 110.361C105.434 109.84 105.15 109.347 104.765 108.882C104.38 108.418 103.947 108.046 103.466 107.768C102.986 107.489 102.488 107.352 101.973 107.357C101.458 107.362 100.958 107.558 100.474 107.945Z" fill="#DD338B"/>
<path d="M90.3422 112.308L94.2963 120.428L93.0462 120.912L92.449 119.686L92.3612 119.72C92.4034 120.181 92.2843 120.615 92.0041 121.021C91.7238 121.427 91.3315 121.727 90.8271 121.923C90.7321 121.96 90.6124 122.004 90.4681 122.056C90.3239 122.107 90.2134 122.144 90.1369 122.165L89.5191 120.896C89.5681 120.89 89.6763 120.867 89.8438 120.827C90.0093 120.792 90.178 120.742 90.3498 120.675C90.7592 120.516 91.0844 120.292 91.3254 120.002C91.5645 119.716 91.7068 119.393 91.7525 119.032C91.7963 118.676 91.7289 118.314 91.5504 117.948L89.0482 112.809L90.3422 112.308Z" fill="#DD338B"/>
<path d="M75.5505 116.928C76.4144 116.823 77.1892 116.923 77.8747 117.226C78.5571 117.534 79.1208 118.01 79.5661 118.655C80.008 119.304 80.3001 120.085 80.4424 120.999C80.5846 121.913 80.5427 122.739 80.3165 123.477C80.087 124.219 79.7011 124.823 79.1588 125.287C78.6132 125.756 77.9357 126.04 77.1263 126.138C76.6593 126.195 76.1861 126.173 75.7067 126.073C75.2273 125.974 74.7737 125.772 74.3459 125.469C73.9186 125.17 73.5498 124.749 73.2394 124.206C72.929 123.664 72.709 122.976 72.5794 122.143L72.489 121.562L79.4002 120.723L79.5847 121.909L74.0744 122.578C74.1527 123.081 74.3238 123.518 74.5876 123.889C74.8476 124.26 75.1802 124.537 75.5854 124.721C75.9868 124.905 76.4365 124.967 76.9346 124.906C77.4833 124.839 77.937 124.646 78.2956 124.326C78.651 124.011 78.9022 123.625 79.0493 123.169C79.1965 122.713 79.2317 122.239 79.1552 121.748L79.0322 120.957C78.9274 120.283 78.7217 119.726 78.4153 119.286C78.1056 118.85 77.7216 118.535 77.2634 118.342C76.8057 118.153 76.2986 118.093 75.7422 118.16C75.3803 118.204 75.0612 118.294 74.785 118.43C74.5055 118.571 74.2748 118.757 74.0927 118.988C73.9112 119.223 73.7862 119.503 73.7177 119.827L72.3289 119.616C72.3991 119.15 72.5731 118.726 72.8508 118.345C73.1291 117.968 73.4967 117.655 73.9536 117.406C74.4111 117.161 74.9434 117.002 75.5505 116.928Z" fill="#DD338B"/>
<rect x="25.3335" y="25.3335" width="89.3334" height="89.3334" rx="44.6667" fill="#EC48A5"/>
<path d="M70.3275 57.1929C70.7338 57.6403 71.1361 58.0918 71.5384 58.5515C72.4988 57.825 73.6646 57.1518 74.7892 57.9769C74.0791 58.0261 73.369 58.0672 72.6548 58.1C73.2828 58.6747 73.915 59.2493 74.5183 59.8568C73.7631 60.8953 72.4373 62.0692 71.1115 61.2072C69.5928 60.4109 69.9252 58.5433 70.3275 57.1929Z" fill="white"/>
<path d="M66.9779 67.0106C66.3335 64.3508 67.1503 61.654 68.0821 59.1748C68.9071 63.5298 72.9132 65.7751 76.7018 67.2117C74.3499 67.5114 72.2976 68.8002 70.0154 69.3092C68.5008 69.6581 67.2981 68.3692 66.9779 67.0106Z" fill="white"/>
<path d="M88.9254 88.2066C90.0091 85.3456 92.5581 83.3795 95.1276 81.9019C93.7771 84.5617 92.283 87.1435 90.8792 89.7746C89.4303 92.3441 86.4421 93.7397 83.5401 93.5221C76.7305 93.2102 69.8758 91.3713 64.0513 87.7756C70.0974 86.6715 76.7798 85.9531 82.4442 88.8839C84.0368 89.6022 85.3544 91.2276 87.2179 91.1291C88.2276 90.4888 88.4452 89.2122 88.9254 88.2066Z" fill="white"/>
<path d="M69.0474 33.7114C71.0587 33.6291 72.8278 34.6026 74.642 35.2466C78.5579 36.808 82.5927 38.4892 85.6343 41.3049C88.4993 44.1693 89.5132 48.1683 89.7184 51.9425C89.9195 55.099 88.7333 58.248 89.4516 61.3857C91.1879 59.5547 90.8431 57.0161 91.664 54.8556C93.3674 58.4951 95.1037 62.6064 93.782 66.5866C91.8118 72.042 85.6959 74.7829 80.7046 77.6173C82.0509 73.7008 87.7318 73.0081 89.0986 69.1439C88.5896 67.9158 86.878 68.4849 85.8354 68.7021C82.17 69.9153 78.7959 71.75 75.3439 73.3825C72.1054 74.8166 68.3824 74.5994 64.9756 73.8655C69.2855 72.5775 73.7431 71.1733 77.0309 68.1816C79.0627 66.3881 80.6594 64.2276 82.367 62.1945C83.3603 58.4988 83.9596 54.5561 82.8062 50.8267C85.4742 52.5978 86.6974 56.0426 85.2731 58.8246C83.2372 63.007 80.3598 66.7888 78.094 70.8626C81.4311 69.6756 82.958 66.3844 85.3141 64.1191C87.7974 61.9249 87.8221 58.6261 88.2325 55.7093C88.8031 49.9693 86.6358 43.4392 80.9673 40.3277C77.6836 38.5229 74.6338 35.973 70.6893 35.5274C68.4194 35.2279 67.0772 37.306 65.304 38.1672C66.3465 36.5422 67.7257 35.1418 69.0474 33.7114Z" fill="white"/>
<path d="M48.7002 39.6914C58.0711 41.6647 68.0783 38.497 77.2768 41.5598C75.5241 41.8931 73.5128 41.6984 72.109 42.904C74.4979 45.5251 78.7011 46.1279 80.8396 49.0597C84.5913 53.5154 82.5841 59.9407 78.9104 63.9022C75.3148 67.7588 70.2784 70.1477 65.3241 72.252C65.0449 68.6986 62.9639 65.516 62.4221 62.0375C63.2553 58.7987 65.6401 56.0503 68.4723 54.0172C64.8808 55.2753 63.1158 58.5403 61.7571 61.5807C61.359 59.8396 60.9608 58.0648 61.0675 56.2825C61.2276 54.4777 63.1322 53.2683 64.967 53.0212C68.46 52.4108 71.9818 53.3357 75.1588 54.6312C76.2753 56.934 75.6431 59.3453 74.3379 61.4496C76.9484 60.0642 76.4353 57.0688 76.8663 54.7473C80.581 57.7615 78.6601 62.528 76.0085 65.5272C79.6452 62.8987 80.1993 58.1471 78.6642 54.3766C77.4533 52.9762 75.4872 52.3622 73.8617 51.4598C74.2229 51.8267 74.9495 52.5606 75.3148 52.9276C71.9982 52.3809 68.6817 51.4523 65.2789 51.8754C67.1301 50.636 69.3425 50.0482 71.403 49.1832C67.4995 49.0896 63.0008 50.1792 60.9362 53.4817C58.9167 56.9078 58.0835 61.3485 60.1563 64.9169C62.0937 67.3282 61.9254 70.8629 65.1393 72.4018C64.2486 72.9971 63.2143 73.716 62.0403 73.4165C59.3969 72.7725 56.8069 71.7577 54.8038 70.0166C54.9147 72.6676 57.1886 74.5061 59.9593 74.8356C62.8325 76.6328 66.4816 76.0038 69.5642 77.2918C72.7945 78.4563 76.1152 77.0335 79.3168 76.528C72.38 82.2344 60.3123 80.5232 55.3457 73.4165C53.5109 70.4285 53.4739 66.8752 52.3616 63.655C53.3467 63.6476 54.4714 63.5465 54.9803 62.6516C57.2379 59.3603 58.7689 55.7058 60.9239 52.3622C62.1183 50.49 64.3102 49.3031 66.617 48.9436C71.243 48.3483 76.1603 49.0447 80.1131 51.3961C75.2286 45.1619 66.2969 41.7957 57.9849 42.26C55.2554 42.3461 52.5504 41.9492 49.8249 41.8556C48.9547 44.6938 45.7982 45.7123 43.3929 47.1838C42.453 53.4181 43.9388 59.7123 46.0856 65.6171C45.3673 64.7409 44.7762 63.7861 44.1523 62.8575C39.8711 66.4595 40.5115 72.1134 38.2662 76.6291C37.8516 77.4828 37.4986 78.7559 38.6356 79.2838C44.1153 82.2905 49.082 86.2632 55.2759 88.0455C59.0439 89.2475 63.4236 88.566 66.6252 86.428C63.7725 86.4242 60.9731 87.9369 58.1245 86.9821C54.2784 85.739 52.575 82.0509 49.7921 79.6171C48.298 78.1119 46.1266 77.494 44.1194 76.7789C46.4139 74.5473 46.3236 71.3833 46.9393 68.5713C49.2954 71.6604 51.1056 75.2699 54.7135 77.378C56.2897 78.1231 56.655 79.823 57.829 80.8939C58.9701 80.9051 60.1358 80.7142 61.2317 81.1185C66.2189 82.6874 71.6575 81.785 76.3984 79.9466C78.775 78.8046 81.2255 80.7965 83.6144 79.7968C88.2814 78.9319 91.5528 75.6294 95.3865 73.3416C100.095 70.0391 103.452 63.3293 99.7374 58.4055C97.5168 55.4063 93.5312 54.4852 90.1284 53.0624C93.6215 52.8302 97.5332 53.4143 99.8975 56.0054C101.634 57.9262 104.667 59.2555 104.848 62.0225C104.807 65.5384 102.41 68.5713 99.9262 71.0838C98.1243 72.6489 98.9165 75.1426 97.7918 77.0148C95.8585 80.5007 93.2767 83.6534 91.1998 87.0683C90.2885 88.7457 88.5276 90.2584 86.3152 89.9701C81.5169 89.5358 76.6652 89.371 71.9531 88.36C67.4544 87.5775 63.2471 89.6331 58.81 89.7043C51.2041 89.7267 45.2728 84.8516 39.0174 81.5978C37.2688 80.834 35.2903 79.1528 36.493 77.2432C38.2703 74.3376 39.0133 71.0688 39.276 67.7813C39.5592 65.2052 42.1738 63.9845 43.9881 62.4119C42.4776 58.574 41.747 54.5114 41.829 50.4301C41.9645 49.0185 41.1066 47.3672 42.1862 46.1391C43.3396 45.233 45.084 45.1806 46.0856 44.0723C47.28 42.7955 47.9491 41.2041 48.7002 39.6914ZM70.2168 55.103C69.8145 56.3349 69.4821 58.0386 71.0008 58.765C72.3266 59.5513 73.6524 58.4804 74.4076 57.5331C73.8043 56.9789 73.1721 56.4547 72.5441 55.9305C73.2583 55.9006 73.9685 55.8631 74.6786 55.8182C73.5539 55.0656 72.3882 55.6796 71.4277 56.3424C71.0254 55.923 70.6232 55.5111 70.2168 55.103ZM66.8674 64.0594C67.1876 65.2988 68.3902 66.4745 69.9049 66.1562C72.187 65.6919 74.2393 64.5162 76.5913 64.2429C72.8027 62.9324 68.7966 60.8842 67.9716 56.9115C67.0398 59.1731 66.223 61.6331 66.8674 64.0594ZM88.815 83.3951C88.3347 84.3124 88.1172 85.4769 87.1074 86.061C85.2439 86.1509 83.9263 84.6682 82.3337 84.0129C76.6693 81.3395 69.9869 81.9947 63.9408 83.0019C69.7653 86.282 76.62 87.9594 83.4297 88.244C86.3316 88.4424 89.3198 87.1694 90.7688 84.8254C92.1726 82.4253 93.6667 80.0701 95.0171 77.6438C92.4476 78.9918 89.8986 80.7853 88.815 83.3951Z" fill="white"/>
<path d="M60.4029 45.1242C64.7128 43.7239 69.6384 45.3489 72.9344 48.0261C70.172 46.4085 67.0566 47.9287 64.1053 47.2922C61.9668 46.9664 60.1484 48.3331 58.7487 49.6286C55.2434 52.9087 51.9966 56.7915 51.1264 61.4158C49.9361 61.6479 48.7416 61.8763 47.5513 62.1085C50.2439 58.791 51.0402 54.6498 51.8488 50.6883C52.3127 51.2649 52.7847 51.8378 53.269 52.4069C55.7154 50.0368 56.8196 46.4048 60.4029 45.1242Z" fill="white"/>
<path d="M68.0092 92.5044C68.1815 91.1714 68.4566 89.2581 69.8932 88.6553C72.3149 89.0934 73.8295 91.0217 75.6192 92.3883C75.2621 91.486 74.868 90.6023 74.4329 89.7336C77.3349 90.0893 80.2533 90.3215 83.1676 90.6173C81.5299 95.8107 74.552 96.7729 72.0153 101.378C71.2682 102.607 71.0548 104.011 70.7675 105.374C66.1087 102.644 61.3268 100.087 56.787 97.1998C54.1806 95.5485 52.8835 92.6692 52.8589 89.8347C53.6798 89.9882 54.5008 90.153 55.3217 90.3215C55.8881 93.1035 58.7819 94.3354 61.2242 95.5411C59.4879 95.3426 57.8214 94.8446 56.118 94.4927C57.8378 96.9826 61.0066 98.2033 64.1549 98.2557C63.4694 98.4354 62.788 98.6226 62.1149 98.8286C64.4997 100.334 66.8229 101.91 69.2323 103.382C68.8137 102.142 68.3375 100.922 67.8696 99.701C68.3375 99.8246 69.2816 100.075 69.7536 100.199C67.0938 98.8772 67.1472 96.1888 67.3688 93.7887C69.064 94.1482 70.5089 95.0393 71.8757 95.9829C71.2149 94.3017 69.5607 93.4031 68.0092 92.5044Z" fill="white"/>
</svg>
